<svg xmlns="http://www.w3.org/2000/svg" xmlns:xlink="http://www.w3.org/1999/xlink" version="1.1"  viewBox="0 0 595.5 842.25">
<defs>
<clipPath id="clip_0">
<path transform="matrix(.24,0,0,.24,0,0)" d="M0 0H2483.3333V3540.4703H0Z" fill-rule="evenodd"/>
</clipPath>
<clipPath id="clip_1">
<path transform="matrix(.24,0,0,.24,0,0)" d="M0 0H2483.3333V3512.3216H0Z" fill-rule="evenodd"/>
</clipPath>
<clipPath id="clip_2">
<path transform="matrix(.24,0,0,.24,0,0)" d="M0 0H2483.3333V3512.3216H0Z" fill-rule="evenodd"/>
</clipPath>
<clipPath id="clip_3">
<path transform="matrix(.24,0,0,.24,0,0)" d="M0 0H2483.3333V3512.3216H0Z" fill-rule="evenodd"/>
</clipPath>
<clipPath id="clip_4">
<path transform="matrix(.24,0,0,.24,0,0)" d="M1361.0532 1845.1282H1404.84V1888.9149H1361.0532Z" fill-rule="evenodd"/>
</clipPath>
<clipPath id="clip_5">
<path transform="matrix(.24,0,0,.24,0,0)" d="M1361.0532 2341.4044H1404.84V2385.191H1361.0532Z" fill-rule="evenodd"/>
</clipPath>
<clipPath id="clip_6">
<path transform="matrix(.24,0,0,.24,0,0)" d="M1361.0532 2836.9554H1404.84V2880.742H1361.0532Z" fill-rule="evenodd"/>
</clipPath>
<clipPath id="clip_7">
<path transform="matrix(.24,0,0,.24,0,0)" d="M1361.0532 1167.7667H1404.84V1211.5535H1361.0532Z" fill-rule="evenodd"/>
</clipPath>
<clipPath id="clip_8">
<path transform="matrix(.24,0,0,.24,0,0)" d="M1361.0532 1396.1826H1404.84V1439.9694H1361.0532Z" fill-rule="evenodd"/>
</clipPath>
<clipPath id="clip_9">
<path transform="matrix(.24,0,0,.24,0,0)" d="M0 0H2483.3333V3512.3216H0Z" fill-rule="evenodd"/>
</clipPath>
<clipPath id="clip_10">
<path transform="matrix(.24,0,0,.24,0,0)" d="M1371.5974 1178.3109H1393.4907V1200.2042H1371.5974Z" fill-rule="evenodd"/>
</clipPath>
<clipPath id="clip_11">
<path transform="matrix(.24,0,0,.24,0,0)" d="M1371.5974 1406.7268H1393.4907V1428.6201H1371.5974Z" fill-rule="evenodd"/>
</clipPath>
<clipPath id="clip_12">
<path transform="matrix(.24,0,0,.24,0,0)" d="M1371.5974 1855.4221H1393.4907V1877.3154H1371.5974Z" fill-rule="evenodd"/>
</clipPath>
<clipPath id="clip_13">
<path transform="matrix(.24,0,0,.24,0,0)" d="M1371.5974 2352.1988H1393.4907V2374.092H1371.5974Z" fill-rule="evenodd"/>
</clipPath>
<clipPath id="clip_14">
<path transform="matrix(.24,0,0,.24,0,0)" d="M1371.5974 2847.7498H1393.4907V2869.643H1371.5974Z" fill-rule="evenodd"/>
</clipPath>
<clipPath id="clip_15">
<path transform="matrix(.24,0,0,.24,0,0)" d="M188.50595 2990.38H235.4203V3074.8258H188.50595Z" fill-rule="evenodd"/>
</clipPath>
<clipPath id="clip_16">
<path transform="matrix(.24,0,0,.24,0,0)" d="M184.61609 3114.4517H240.91332V3158.2384H184.61609Z" fill-rule="evenodd"/>
</clipPath>
<clipPath id="clip_17">
<path transform="matrix(.24,0,0,.24,0,0)" d="M188.50595 3204.661H238.54793V3282.8516H188.50595Z" fill-rule="evenodd"/>
</clipPath>
<clipPath id="clip_18">
<path transform="matrix(.24,0,0,.24,0,0)" d="M2209.1116 10.005373H2474.9595V216.42855H2209.1116Z" fill-rule="evenodd"/>
</clipPath>
<clipPath id="clip_19">
<path transform="matrix(.24,0,0,.24,0,0)" d="M2344.0958 128.43019H2433.7125V216.42855H2344.0958Z" fill-rule="evenodd"/>
</clipPath>
<clipPath id="clip_20">
<path transform="matrix(.24,0,0,.24,0,0)" d="M2424.4417 116.63897H2474.9205V166.62346H2424.4417Z" fill-rule="evenodd"/>
</clipPath>
<clipPath id="clip_21">
<path transform="matrix(.24,0,0,.24,0,0)" d="M2209.1116 10.005373H2474.9595V216.42855H2209.1116Z" fill-rule="evenodd"/>
</clipPath>
<clipPath id="clip_22">
<path transform="matrix(.24,0,0,.24,0,0)" d="M0 0H2483.3333V3512.3216H0Z" fill-rule="evenodd"/>
</clipPath>
<clipPath id="clip_23">
<path transform="matrix(.24,0,0,.24,0,0)" d="M11.820941 10.005373H277.1314V216.42855H11.820941Z" fill-rule="evenodd"/>
</clipPath>
<clipPath id="clip_24">
<path transform="matrix(.24,0,0,.24,0,0)" d="M52.530626 128.43019H142.14725V216.42855H52.530626Z" fill-rule="evenodd"/>
</clipPath>
<clipPath id="clip_25">
<path transform="matrix(.24,0,0,.24,0,0)" d="M11.820941 116.63897H61.8013V166.62346H11.820941Z" fill-rule="evenodd"/>
</clipPath>
<clipPath id="clip_26">
<path transform="matrix(.24,0,0,.24,0,0)" d="M11.820941 10.005373H277.1314V216.42855H11.820941Z" fill-rule="evenodd"/>
</clipPath>
</defs>
<g clip-path="url(#clip_0)">
<path transform="matrix(.7506297,0,0,.7506297,0,0)" d="M0 0H794V1132H0Z" fill="#ffffff"/>
</g>
<g clip-path="url(#clip_1)">
<path transform="matrix(.7506297,0,0,.7506297,0,0)" d="M0 0H794V1123H0Z" fill="#ffffff"/>
</g>
<g clip-path="url(#clip_2)">
<path transform="matrix(.7506297,0,0,.7506297,0,0)" d="M0 0H794V1123H0Z" fill="#ffffff"/>
</g>
<g clip-path="url(#clip_3)">
<path transform="matrix(.000000000000000046097863,-.7528353,.7506297,.000000000000000045962815,330.97358,342.67356)" stroke-width="2" stroke-linecap="butt" stroke-miterlimit="4" stroke-linejoin="miter" fill="none" stroke="#1d4eff" d="M.00000000000002842171 1H79.77764"/>
<path transform="matrix(.00000000000000004591807,-.74989899,.7506297,.000000000000000045962815,330.97654,783.01748)" stroke-width="2" stroke-linecap="butt" stroke-miterlimit="4" stroke-linejoin="miter" fill="none" stroke="#1d4eff" d="M0 1H449.44166"/>
</g>
<g clip-path="url(#clip_4)">
<path transform="matrix(.01765594,0,0,.01765594,324.47578,442.83076)" d="M718.5 297.6C718.49996 317.1407 716.5938 336.49363 712.7816 355.65885 708.96939 374.82408 703.3243 393.43333 695.84646 411.48658 688.3685 429.53984 679.2015 446.6902 668.3453 462.93766 657.4891 479.18519 645.1523 494.21763 631.33499 508.03498 617.5176 521.8523 602.48519 534.189 586.2377 545.0453 569.9902 555.9015 552.8398 565.06857 534.7865 572.54647 516.7333 580.02438 498.12403 585.6694 478.95884 589.48159 459.7936 593.2938 440.44068 595.19998 420.9 595.2 401.35926 595.19998 382.0063 593.2938 362.84107 589.48159 343.67585 585.6694 325.0666 580.02438 307.01335 572.54647 288.96009 565.06857 271.80973 555.9015 255.56224 545.0453 239.31476 534.189 224.28234 521.8523 210.465 508.03495 196.64765 494.21757 184.31085 479.18513 173.45462 462.93766 162.59839 446.69017 153.43132 429.53977 145.95342 411.4865 138.47553 393.43327 132.83048 374.824 129.01827 355.6588 125.20608 336.49363 123.29998 317.1407 123.29999 297.6 123.29998 278.05934 125.20608 258.70637 129.01827 239.54109 132.83048 220.37587 138.47553 201.76663 145.95342 183.7134 153.43132 165.66016 162.59839 148.50978 173.45462 132.2623 184.31085 116.0148 196.64765 100.982379 210.465 87.165019 224.28234 73.34766 239.31476 61.010866 255.56226 50.154638 271.80976 39.29841 288.9601 30.131348 307.01338 22.653449 325.06663 15.175549 343.67585 9.5305 362.84107 5.7183 382.0063 1.9060998 401.35926 0 420.9 0 440.44068 0 459.7936 1.9060998 478.95884 5.7183 498.12406 9.5305 516.7333 15.175549 534.78659 22.653449 552.83987 30.131348 569.9902 39.29841 586.2377 50.154638 602.48519 61.010866 617.5176 73.34766 631.33499 87.165019 645.1523 100.982379 657.4891 116.01479 668.3453 132.26229 679.2015 148.50978 688.3685 165.66014 695.84646 183.71338 703.3243 201.76663 708.96939 220.37587 712.7817 239.54109 716.5939 258.70637 718.49996 278.05934 718.5 297.6Z" fill="#1d4eff"/>
</g>
<g clip-path="url(#clip_5)">
<path transform="matrix(.01765594,0,0,.01765594,324.47578,561.937)" d="M718.5 297.6C718.49996 317.1407 716.5938 336.49363 712.7816 355.65885 708.96939 374.82408 703.3243 393.43333 695.84646 411.48658 688.3685 429.53984 679.2015 446.6902 668.3453 462.93766 657.4891 479.18519 645.1523 494.21763 631.33499 508.03498 617.5176 521.8523 602.48519 534.189 586.2377 545.0453 569.9902 555.9015 552.8398 565.06857 534.7865 572.54647 516.7333 580.02438 498.12403 585.6694 478.95884 589.48159 459.7936 593.2938 440.44068 595.19998 420.9 595.2 401.35926 595.19998 382.0063 593.2938 362.84107 589.48159 343.67585 585.6694 325.0666 580.02438 307.01335 572.54647 288.96009 565.06857 271.80973 555.9015 255.56224 545.0453 239.31476 534.189 224.28234 521.8523 210.465 508.03495 196.64765 494.21757 184.31085 479.18513 173.45462 462.93766 162.59839 446.69017 153.43132 429.53977 145.95342 411.4865 138.47553 393.43327 132.83048 374.824 129.01827 355.6588 125.20608 336.49363 123.29998 317.1407 123.29999 297.6 123.29998 278.05934 125.20608 258.70637 129.01827 239.54109 132.83048 220.37587 138.47553 201.76663 145.95342 183.7134 153.43132 165.66016 162.59839 148.50978 173.45462 132.2623 184.31085 116.0148 196.64765 100.982379 210.465 87.165019 224.28234 73.34766 239.31476 61.010866 255.56226 50.154638 271.80976 39.29841 288.9601 30.131348 307.01338 22.653449 325.06663 15.175549 343.67585 9.5305 362.84107 5.7183 382.0063 1.9060998 401.35926 0 420.9 0 440.44068 0 459.7936 1.9060998 478.95884 5.7183 498.12406 9.5305 516.7333 15.175549 534.78659 22.653449 552.83987 30.131348 569.9902 39.29841 586.2377 50.154638 602.48519 61.010866 617.5176 73.34766 631.33499 87.165019 645.1523 100.982379 657.4891 116.01479 668.3453 132.26229 679.2015 148.50978 688.3685 165.66014 695.84646 183.71338 703.3243 201.76663 708.96939 220.37587 712.7817 239.54109 716.5939 258.70637 718.49996 278.05934 718.5 297.6Z" fill="#1d4eff"/>
</g>
<g clip-path="url(#clip_6)">
<path transform="matrix(.01765594,0,0,.01765594,324.47578,680.86929)" d="M718.5 297.6C718.49996 317.1407 716.5938 336.49363 712.7816 355.65885 708.96939 374.82408 703.3243 393.43333 695.84646 411.48658 688.3685 429.53984 679.2015 446.6902 668.3453 462.93766 657.4891 479.18519 645.1523 494.21763 631.33499 508.03498 617.5176 521.8523 602.48519 534.189 586.2377 545.0453 569.9902 555.9015 552.8398 565.06857 534.7865 572.54647 516.7333 580.02438 498.12403 585.6694 478.95884 589.48159 459.7936 593.2938 440.44068 595.19998 420.9 595.2 401.35926 595.19998 382.0063 593.2938 362.84107 589.48159 343.67585 585.6694 325.0666 580.02438 307.01335 572.54647 288.96009 565.06857 271.80973 555.9015 255.56224 545.0453 239.31476 534.189 224.28234 521.8523 210.465 508.03495 196.64765 494.21757 184.31085 479.18513 173.45462 462.93766 162.59839 446.69017 153.43132 429.53977 145.95342 411.4865 138.47553 393.43327 132.83048 374.824 129.01827 355.6588 125.20608 336.49363 123.29998 317.1407 123.29999 297.6 123.29998 278.05934 125.20608 258.70637 129.01827 239.54109 132.83048 220.37587 138.47553 201.76663 145.95342 183.7134 153.43132 165.66016 162.59839 148.50978 173.45462 132.2623 184.31085 116.0148 196.64765 100.982379 210.465 87.165019 224.28234 73.34766 239.31476 61.010866 255.56226 50.154638 271.80976 39.29841 288.9601 30.131348 307.01338 22.653449 325.06663 15.175549 343.67585 9.5305 362.84107 5.7183 382.0063 1.9060998 401.35926 0 420.9 0 440.44068 0 459.7936 1.9060998 478.95884 5.7183 498.12406 9.5305 516.7333 15.175549 534.78659 22.653449 552.83987 30.131348 569.9902 39.29841 586.2377 50.154638 602.48519 61.010866 617.5176 73.34766 631.33499 87.165019 645.1523 100.982379 657.4891 116.01479 668.3453 132.26229 679.2015 148.50978 688.3685 165.66014 695.84646 183.71338 703.3243 201.76663 708.96939 220.37587 712.7817 239.54109 716.5939 258.70637 718.49996 278.05934 718.5 297.6Z" fill="#1d4eff"/>
</g>
<g clip-path="url(#clip_7)">
<path transform="matrix(.01765594,0,0,.01765594,324.47578,280.264)" d="M718.5 297.6C718.49996 317.1407 716.5938 336.49363 712.7816 355.65885 708.96939 374.82408 703.3243 393.43333 695.84646 411.48658 688.3685 429.53984 679.2015 446.6902 668.3453 462.93766 657.4891 479.18519 645.1523 494.21763 631.33499 508.03498 617.5176 521.8523 602.48519 534.189 586.2377 545.0453 569.9902 555.9015 552.8398 565.06857 534.7865 572.54647 516.7333 580.02438 498.12403 585.6694 478.95884 589.48159 459.7936 593.2938 440.44068 595.19998 420.9 595.2 401.35926 595.19998 382.0063 593.2938 362.84107 589.48159 343.67585 585.6694 325.0666 580.02438 307.01335 572.54647 288.96009 565.06857 271.80973 555.9015 255.56224 545.0453 239.31476 534.189 224.28234 521.8523 210.465 508.03495 196.64765 494.21757 184.31085 479.18513 173.45462 462.93766 162.59839 446.69017 153.43132 429.53977 145.95342 411.4865 138.47553 393.43327 132.83048 374.824 129.01827 355.6588 125.20608 336.49363 123.29998 317.1407 123.29999 297.6 123.29998 278.05934 125.20608 258.70637 129.01827 239.54109 132.83048 220.37587 138.47553 201.76663 145.95342 183.7134 153.43132 165.66016 162.59839 148.50978 173.45462 132.2623 184.31085 116.0148 196.64765 100.982379 210.465 87.165019 224.28234 73.34766 239.31476 61.010866 255.56226 50.154638 271.80976 39.29841 288.9601 30.131348 307.01338 22.653449 325.06663 15.175549 343.67585 9.5305 362.84107 5.7183 382.0063 1.9060998 401.35926 0 420.9 0 440.44068 0 459.7936 1.9060998 478.95884 5.7183 498.12406 9.5305 516.7333 15.175549 534.78659 22.653449 552.83987 30.131348 569.9902 39.29841 586.2377 50.154638 602.48519 61.010866 617.5176 73.34766 631.33499 87.165019 645.1523 100.982379 657.4891 116.01479 668.3453 132.26229 679.2015 148.50978 688.3685 165.66014 695.84646 183.71338 703.3243 201.76663 708.96939 220.37587 712.7817 239.54109 716.5939 258.70637 718.49996 278.05934 718.5 297.6Z" fill="#1d4eff"/>
</g>
<g clip-path="url(#clip_8)">
<path transform="matrix(.01765594,0,0,.01765594,324.47578,335.08384)" d="M718.5 297.6C718.49996 317.1407 716.5938 336.49363 712.7816 355.65885 708.96939 374.82408 703.3243 393.43333 695.84646 411.48658 688.3685 429.53984 679.2015 446.6902 668.3453 462.93766 657.4891 479.18519 645.1523 494.21763 631.33499 508.03498 617.5176 521.8523 602.48519 534.189 586.2377 545.0453 569.9902 555.9015 552.8398 565.06857 534.7865 572.54647 516.7333 580.02438 498.12403 585.6694 478.95884 589.48159 459.7936 593.2938 440.44068 595.19998 420.9 595.2 401.35926 595.19998 382.0063 593.2938 362.84107 589.48159 343.67585 585.6694 325.0666 580.02438 307.01335 572.54647 288.96009 565.06857 271.80973 555.9015 255.56224 545.0453 239.31476 534.189 224.28234 521.8523 210.465 508.03495 196.64765 494.21757 184.31085 479.18513 173.45462 462.93766 162.59839 446.69017 153.43132 429.53977 145.95342 411.4865 138.47553 393.43327 132.83048 374.824 129.01827 355.6588 125.20608 336.49363 123.29998 317.1407 123.29999 297.6 123.29998 278.05934 125.20608 258.70637 129.01827 239.54109 132.83048 220.37587 138.47553 201.76663 145.95342 183.7134 153.43132 165.66016 162.59839 148.50978 173.45462 132.2623 184.31085 116.0148 196.64765 100.982379 210.465 87.165019 224.28234 73.34766 239.31476 61.010866 255.56226 50.154638 271.80976 39.29841 288.9601 30.131348 307.01338 22.653449 325.06663 15.175549 343.67585 9.5305 362.84107 5.7183 382.0063 1.9060998 401.35926 0 420.9 0 440.44068 0 459.7936 1.9060998 478.95884 5.7183 498.12406 9.5305 516.7333 15.175549 534.78659 22.653449 552.83987 30.131348 569.9902 39.29841 586.2377 50.154638 602.48519 61.010866 617.5176 73.34766 631.33499 87.165019 645.1523 100.982379 657.4891 116.01479 668.3453 132.26229 679.2015 148.50978 688.3685 165.66014 695.84646 183.71338 703.3243 201.76663 708.96939 220.37587 712.7817 239.54109 716.5939 258.70637 718.49996 278.05934 718.5 297.6Z" fill="#1d4eff"/>
</g>
<g clip-path="url(#clip_9)">
<path transform="matrix(-.75007817,-.00000000000000009185808,.00000000000000009192563,-.7506297,553.52096,394.54539)" stroke-width="2" stroke-linecap="butt" stroke-miterlimit="4" stroke-linejoin="miter" fill="none" stroke="#1d4eff" d="M0 1H425.31678"/>
<path transform="matrix(-.74878868,-.00000000000000009170016,.00000000000000009192563,-.7506297,190.85872,394.54539)" stroke-width="2" stroke-linecap="butt" stroke-miterlimit="4" stroke-linejoin="miter" fill="none" stroke="#1d4eff" d="M0 1H197.49224"/>
<path transform="matrix(-.74878868,-.00000000000000009170016,.00000000000000009192563,-.7506297,190.85872,512.8112)" stroke-width="2" stroke-linecap="butt" stroke-miterlimit="4" stroke-linejoin="miter" fill="none" stroke="#1d4eff" d="M0 1H197.49224"/>
<path transform="matrix(-.74878868,-.00000000000000009170016,.00000000000000009192563,-.7506297,190.85872,673.2946)" stroke-width="2" stroke-linecap="butt" stroke-miterlimit="4" stroke-linejoin="miter" fill="none" stroke="#1d4eff" d="M0 1H197.49224"/>
<path transform="matrix(-.75007817,-.00000000000000009185808,.00000000000000009192563,-.7506297,553.52096,231.72519)" stroke-width="2" stroke-linecap="butt" stroke-miterlimit="4" stroke-linejoin="miter" fill="none" stroke="#1d4eff" d="M0 1H425.31678"/>
<path transform="matrix(-.74878868,-.00000000000000009170016,.00000000000000009192563,-.7506297,190.85872,231.72519)" stroke-width="2" stroke-linecap="butt" stroke-miterlimit="4" stroke-linejoin="miter" fill="none" stroke="#1d4eff" d="M0 1H197.49224"/>
</g>
<g clip-path="url(#clip_10)">
<path transform="matrix(.008827969,0,0,.008827969,328.09489,282.79463)" d="M718.5 297.6C718.49996 337.06419 710.9487 375.02638 695.84646 411.48658 680.74417 447.94676 659.2403 480.12956 631.33499 508.03498 603.4295 535.9403 571.24667 557.44418 534.7865 572.54647 498.32633 587.64877 460.36418 595.19998 420.9 595.2 381.43574 595.19998 343.4735 587.64877 307.01335 572.54647 270.55317 557.44418 238.37039 535.9403 210.465 508.03495 182.55959 480.12953 161.05573 447.9467 145.95342 411.4865 130.85112 375.02635 123.29998 337.06419 123.29999 297.6 123.29998 258.13578 130.85112 220.17359 145.95342 183.7134 161.05573 147.25322 182.55959 115.07043 210.465 87.165019 238.37039 59.2596 270.5532 37.755746 307.01338 22.653449 343.47355 7.5511496 381.43574 0 420.9 0 460.36418 0 498.32637 7.5511496 534.78659 22.653449 571.2467 37.755746 603.4295 59.2596 631.33499 87.165019 659.2403 115.07043 680.74417 147.2532 695.84646 183.71338 710.9487 220.17359 718.49996 258.13578 718.5 297.6Z" fill="#ffffff"/>
</g>
<g clip-path="url(#clip_11)">
<path transform="matrix(.008827969,0,0,.008827969,328.09489,337.61445)" d="M718.5 297.6C718.49996 337.06419 710.9487 375.02638 695.84646 411.48658 680.74417 447.94676 659.2403 480.12956 631.33499 508.03498 603.4295 535.9403 571.24667 557.44418 534.7865 572.54647 498.32633 587.64877 460.36418 595.19998 420.9 595.2 381.43574 595.19998 343.4735 587.64877 307.01335 572.54647 270.55317 557.44418 238.37039 535.9403 210.465 508.03495 182.55959 480.12953 161.05573 447.9467 145.95342 411.4865 130.85112 375.02635 123.29998 337.06419 123.29999 297.6 123.29998 258.13578 130.85112 220.17359 145.95342 183.7134 161.05573 147.25322 182.55959 115.07043 210.465 87.165019 238.37039 59.2596 270.5532 37.755746 307.01338 22.653449 343.47355 7.5511496 381.43574 0 420.9 0 460.36418 0 498.32637 7.5511496 534.78659 22.653449 571.2467 37.755746 603.4295 59.2596 631.33499 87.165019 659.2403 115.07043 680.74417 147.2532 695.84646 183.71338 710.9487 220.17359 718.49996 258.13578 718.5 297.6Z" fill="#ffffff"/>
</g>
<g clip-path="url(#clip_12)">
<path transform="matrix(.008827969,0,0,.008827969,328.09489,445.3013)" d="M718.5 297.6C718.49996 337.06419 710.9487 375.02638 695.84646 411.48658 680.74417 447.94676 659.2403 480.12956 631.33499 508.03498 603.4295 535.9403 571.24667 557.44418 534.7865 572.54647 498.32633 587.64877 460.36418 595.19998 420.9 595.2 381.43574 595.19998 343.4735 587.64877 307.01335 572.54647 270.55317 557.44418 238.37039 535.9403 210.465 508.03495 182.55959 480.12953 161.05573 447.9467 145.95342 411.4865 130.85112 375.02635 123.29998 337.06419 123.29999 297.6 123.29998 258.13578 130.85112 220.17359 145.95342 183.7134 161.05573 147.25322 182.55959 115.07043 210.465 87.165019 238.37039 59.2596 270.5532 37.755746 307.01338 22.653449 343.47355 7.5511496 381.43574 0 420.9 0 460.36418 0 498.32637 7.5511496 534.78659 22.653449 571.2467 37.755746 603.4295 59.2596 631.33499 87.165019 659.2403 115.07043 680.74417 147.2532 695.84646 183.71338 710.9487 220.17359 718.49996 258.13578 718.5 297.6Z" fill="#ffffff"/>
</g>
<g clip-path="url(#clip_13)">
<path transform="matrix(.008827969,0,0,.008827969,328.09489,564.5277)" d="M718.5 297.6C718.49996 337.06419 710.9487 375.02638 695.84646 411.48658 680.74417 447.94676 659.2403 480.12956 631.33499 508.03498 603.4295 535.9403 571.24667 557.44418 534.7865 572.54647 498.32633 587.64877 460.36418 595.19998 420.9 595.2 381.43574 595.19998 343.4735 587.64877 307.01335 572.54647 270.55317 557.44418 238.37039 535.9403 210.465 508.03495 182.55959 480.12953 161.05573 447.9467 145.95342 411.4865 130.85112 375.02635 123.29998 337.06419 123.29999 297.6 123.29998 258.13578 130.85112 220.17359 145.95342 183.7134 161.05573 147.25322 182.55959 115.07043 210.465 87.165019 238.37039 59.2596 270.5532 37.755746 307.01338 22.653449 343.47355 7.5511496 381.43574 0 420.9 0 460.36418 0 498.32637 7.5511496 534.78659 22.653449 571.2467 37.755746 603.4295 59.2596 631.33499 87.165019 659.2403 115.07043 680.74417 147.2532 695.84646 183.71338 710.9487 220.17359 718.49996 258.13578 718.5 297.6Z" fill="#ffffff"/>
</g>
<g clip-path="url(#clip_14)">
<path transform="matrix(.008827969,0,0,.008827969,328.09489,683.4599)" d="M718.5 297.6C718.49996 337.06419 710.9487 375.02638 695.84646 411.48658 680.74417 447.94676 659.2403 480.12956 631.33499 508.03498 603.4295 535.9403 571.24667 557.44418 534.7865 572.54647 498.32633 587.64877 460.36418 595.19998 420.9 595.2 381.43574 595.19998 343.4735 587.64877 307.01335 572.54647 270.55317 557.44418 238.37039 535.9403 210.465 508.03495 182.55959 480.12953 161.05573 447.9467 145.95342 411.4865 130.85112 375.02635 123.29998 337.06419 123.29999 297.6 123.29998 258.13578 130.85112 220.17359 145.95342 183.7134 161.05573 147.25322 182.55959 115.07043 210.465 87.165019 238.37039 59.2596 270.5532 37.755746 307.01338 22.653449 343.47355 7.5511496 381.43574 0 420.9 0 460.36418 0 498.32637 7.5511496 534.78659 22.653449 571.2467 37.755746 603.4295 59.2596 631.33499 87.165019 659.2403 115.07043 680.74417 147.2532 695.84646 183.71338 710.9487 220.17359 718.49996 258.13578 718.5 297.6Z" fill="#ffffff"/>
</g>
<g clip-path="url(#clip_15)">
<path transform="matrix(.009390697,0,0,.009162784,45.24894,717.70578)" d="M1096.4 .83300009C1098.724 .84400007 1101.046 .9280001 1103.364 1.0970001 1107.714 1.4140002 1112.042 2.0180002 1116.312 2.9050003 1121.791 4.044 1127.171 5.651 1132.377 7.704 1137.9619 9.906 1143.345 12.62 1148.437 15.799999 1153.6481 19.053999 1158.557 22.792 1163.077 26.952 1168.173 31.64 1172.777 36.859 1176.79 42.502 1180.546 47.781999 1183.781 53.432 1186.433 59.343999 1189.089 65.264 1191.155 71.447 1192.595 77.772998 1193.6079 82.21999 1194.3109 86.739 1194.699 91.284 1194.923 93.909999 1195.041 96.545 1195.0599 99.181 1198.167 769.261 1198.168 1439.381 1195.0599 2109.481 1195.0409 2112.117 1194.923 2114.752 1194.699 2117.379 1194.311 2121.9229 1193.608 2126.442 1192.596 2130.889 1191.289 2136.627 1189.4679 2142.2479 1187.158 2147.661 1184.6129 2153.627 1181.4769 2159.3399 1177.813 2164.6939 1174.125 2170.0838 1169.902 2175.108 1165.229 2179.671 1160.553 2184.2379 1155.425 2188.3419 1149.944 2191.9029 1145.1699 2195.004 1140.129 2197.692 1134.893 2199.9259 1129.48 2202.2349 1123.86 2204.0557 1118.122 2205.3629 1113.674 2206.3758 1109.156 2207.0789 1104.611 2207.4659 1101.984 2207.69 1099.35 2207.8079 1096.714 2207.828 764.79397 2209.367 432.864 2209.367 100.94397 2207.828 98.30797 2207.8079 95.67397 2207.69 93.04697 2207.4659 88.50197 2207.0789 83.98296 2206.3758 79.535968 2205.3629 73.797969 2204.056 68.17796 2202.2349 62.764966 2199.9259 56.432966 2197.2239 50.386964 2193.8577 44.752969 2189.9019 39.407968 2186.15 34.433969 2181.868 29.927968 2177.14 25.554966 2172.553 21.620968 2167.5469 18.199967 2162.211 15.016966 2157.2459 12.2779669 2151.9969 10.030967 2146.544 7.864967 2141.285 6.153967 2135.8389 4.9269669 2130.286 3.9199668 2125.7279 3.2369667 2121.098 2.8839668 2116.4439 2.7079666 2114.13 2.6159669 2111.8099 2.5979667 2109.4888-.82103326 1439.3987-.8200333 769.2888 2.5979667 99.18872 2.6159666 96.86772 2.7079666 94.54772 2.8839668 92.23372 3.2369667 87.57872 3.9199668 82.94972 4.9269669 78.391719 6.219967 72.54172 8.047967 66.811717 10.381967 61.294717 12.793966 55.592718 15.743967 50.119718 19.178967 44.968717 22.694968 39.698717 26.714966 34.765718 31.167967 30.259716 35.620969 25.753716 40.503969 21.674717 45.730966 18.097718 50.918966 14.547717 56.444967 11.491717 62.211969 8.9897179 67.98397 6.485718 73.99597 4.5377175 80.13997 3.1797176 84.59497 2.1947175 89.117969 1.5207175 93.66597 1.1607175 96.08597 .96871748 98.51197 .8697175 100.93897 .8497175 432.75898-.7272825 764.579 .31971754 1096.399 .8487175L1096.4 .83300009ZM629.65 2017.133H567.78207C543.46707 2017.133 523.728 2036.873 523.728 2061.186V2123.055C523.728 2147.368 543.468 2167.108 567.78207 2167.108H629.65C653.96408 2167.108 673.70407 2147.368 673.70407 2123.055V2061.186C673.70407 2036.873 653.965 2017.133 629.65 2017.133ZM618.06 2045.228C633.265 2045.229 645.608 2057.573 645.608 2072.7762V2111.464C645.608 2126.6683 633.264 2139.0123 618.06 2139.0123H579.372C564.168 2139.0123 551.82406 2126.6683 551.82406 2111.464V2072.7762C551.82406 2057.5733 564.16708 2045.2291 579.372 2045.2282H618.06V2045.228ZM1160.24 154.02808H37.640016C36.723016 762.49807 34.690015 1370.9281 37.131017 1979.4281H1160.3309C1161.5089 1370.9581 1162.9049 762.5281 1160.3259 154.02808H1160.24ZM795.15 59.804079H402.29005C397.64604 59.805078 393.87705 63.574079 393.87705 68.21708V85.04408C393.87705 89.68708 397.64704 93.457088 402.29005 93.457088H795.15C799.794 93.457088 803.564 89.68709 803.564 85.04408V68.21709C803.564 63.574087 799.79507 59.805089 795.15 59.804086V59.804079Z" fill="#1d4eff" fill-rule="evenodd"/>
</g>
<g clip-path="url(#clip_16)">
<path transform="matrix(.48254768,0,0,.4775192,43.342767,744.605)" d="M26.0599 8H5.94008L15.3903 15.2694C15.7497 15.5459 16.2502 15.5459 16.6097 15.2694L26.0599 8ZM4 9.03089V26H28V9.03085L17.8291 16.8546C16.7507 17.6841 15.2492 17.6841 14.1708 16.8546L4 9.03089ZM2 8C2 6.89543 2.89543 6 4 6H28C29.1046 6 30 6.89543 30 8V26C30 27.1046 29.1046 28 28 28H4C2.89543 28 2 27.1046 2 26V8Z" fill="#1d4eff" fill-rule="evenodd"/>
</g>
<g clip-path="url(#clip_17)">
<path transform="matrix(.0041271739,0,0,.004241079,32.377027,759.0858)" d="M4572 6502 5780 4241C5803 4175 5820 4107 5832 4038 5844 3968 5850 3896 5850 3822 5850 3469 5707 3149 5476 2918 5244 2687 4925 2544 4572 2544 4219 2544 3900 2687 3668 2918 3437 3149 3294 3469 3294 3822 3294 3896 3300 3968 3312 4038 3324 4107 3341 4175 3364 4241L4572 6502ZM4572 3027C4796 3027 4998 3118 5144 3265 5291 3411 5382 3613 5382 3837 5382 3883 5378 3928 5370 3973 5362 4018 5351 4062 5336 4105 5280 4265 5175 4402 5039 4498 4907 4591 4746 4646 4572 4646 4398 4646 4237 4591 4105 4498 3969 4402 3865 4265 3809 4105L3808 4106C3793 4063 3782 4019 3774 3973 3766 3928 3762 3883 3762 3837 3762 3613 3853 3411 4000 3265 4146 3118 4348 3027 4572 3027ZM5020 3389C4905 3275 4747 3204 4572 3204 4397 3204 4239 3275 4124 3389 4010 3504 3939 3662 3939 3837 3939 3874 3942 3910 3948 3944 3954 3979 3963 4014 3974 4047 4018 4172 4100 4279 4206 4354 4309 4427 4435 4470 4572 4470 4709 4470 4835 4427 4938 4354 5044 4279 5126 4172 5170 4047 5181 4014 5190 3980 5196 3944 5202 3910 5205 3874 5205 3837 5205 3662 5134 3504 5020 3389ZM5939 4316 4650 6729C4642 6745 4630 6758 4613 6766 4571 6789 4517 6773 4494 6730L3208 4322C3205 4316 3202 4311 3200 4304 3173 4228 3152 4148 3138 4067 3125 3986 3117 3905 3117 3822 3117 3420 3280 3057 3544 2793 3807 2530 4170 2367 4572 2367 4974 2367 5337 2530 5600 2793 5864 3057 6027 3420 6027 3822 6027 3905 6019 3986 6006 4067 5992 4148 5971 4228 5944 4304 5943 4308 5941 4312 5939 4316Z" fill="#1d4eff"/>
</g>
<g clip-path="url(#clip_18)">
<path transform="matrix(.061804568,0,0,.06151938,530.1974,2.4012895)" d="M562.4922 396.3828C481.14064 396.3828 415.1953 330.4375 415.1953 249.08985 415.1953 167.73828 481.14064 101.79297 562.4922 101.79297 643.83987 101.79297 709.78518 167.73828 709.78518 249.08985 709.78518 330.4375 643.83987 396.3828 562.4922 396.3828ZM750.8867 267.6328 811.22268 235.71485C810.3125 218.53907 807.66018 201.82032 803.4453 185.73828L737.40628 176.60157C731.9961 163.5625 725.1758 151.25782 717.1289 139.8789L742.65237 77.08594C731.4258 65.328128 719.0547 54.671876 705.72659 45.285158L649.1953 80.77344C635.9961 73.96094 621.8906 68.66406 607.1133 65.08984L586.4844 1.148438C578.58987 .39453105 570.58596 .00390625 562.4922 .00390625 554.39456 .00390625 546.39456 .39453105 538.4961 1.148438L517.8711 65.08984C503.08985 68.66406 488.98439 73.96094 475.78517 80.77344L419.2578 45.285158C405.92579 54.671876 393.5547 65.328128 382.32814 77.08594L407.85548 139.8789C399.8047 151.25782 392.98439 163.5625 387.57814 176.60157L321.53517 185.73828C317.3203 201.82032 314.66798 218.53907 313.76173 235.71485L374.09376 267.6328C375.32423 280.27735 377.80079 292.5547 381.39454 304.34376L336.5039 353.98439C343.96485 370.02735 353.08595 385.14064 363.64064 399.10939L430.48829 384.7539C438.47657 392.52735 447.14454 399.61329 456.40626 405.89064L453.90626 473.3203C469.96876 481.11329 486.9922 487.22657 504.7539 491.4453L546.5508 437.71485C551.8047 438.15235 557.1211 438.39064 562.4922 438.39064 567.8594 438.39064 573.1758 438.15235 578.4336 437.71485L620.22659 491.4453C637.9883 487.22657 655.0117 481.11329 671.0742 473.3203L668.5742 405.89064C677.83596 399.61329 686.5039 392.52735 694.4922 384.7539L761.34378 399.10939C771.89846 385.14064 781.0156 370.02735 788.47659 353.98439L743.58987 304.34376C747.1836 292.5547 749.65628 280.27735 750.8867 267.6328" fill="#4f4c4c"/>
</g>
<g clip-path="url(#clip_19)">
<path transform="matrix(.061804568,0,0,.06151938,530.1974,2.4012895)" d="M697.6289 738.9922C640.8594 738.9922 594.83596 692.96878 594.83596 636.1992 594.83596 579.4297 640.8594 533.40628 697.6289 533.40628 754.39846 533.40628 800.4219 579.4297 800.4219 636.1992 800.4219 692.96878 754.39846 738.9922 697.6289 738.9922ZM829.10159 649.1406 871.20706 626.8672C870.5742 614.8789 868.72268 603.21487 865.78128 591.9883L819.6953 585.6133C815.91799 576.5156 811.16018 567.9258 805.54299 559.9883L823.35549 516.16409C815.51956 507.96095 806.8906 500.51954 797.58596 493.97267L758.1367 518.7383C748.9258 513.9844 739.08206 510.28517 728.76956 507.79298L714.3711 463.17189C708.8633 462.64454 703.27737 462.3711 697.6289 462.3711 691.98049 462.3711 686.39456 462.64454 680.8828 463.17189L666.4883 507.79298C656.1758 510.28517 646.3281 513.9844 637.1172 518.7383L597.6719 493.97267C588.3672 500.51954 579.7344 507.96095 571.89846 516.16409L589.71487 559.9883C584.09768 567.9258 579.33596 576.5156 575.5625 585.6133L529.47268 591.9883C526.53128 603.21487 524.6836 614.8789 524.0469 626.8672L566.15237 649.1406C567.0117 657.96487 568.7383 666.53128 571.2461 674.7617L539.9219 709.40237C545.125 720.59768 551.4883 731.14456 558.85549 740.89456L605.5078 730.875C611.08596 736.3008 617.1328 741.2422 623.59378 745.625L621.85159 792.6836C633.0586 798.1211 644.9414 802.3906 657.33596 805.3281L686.5039 767.83596C690.1719 768.1406 693.8789 768.3047 697.6289 768.3047 701.375 768.3047 705.08596 768.1406 708.7539 767.83596L737.9219 805.3281C750.3164 802.3906 762.1953 798.1211 773.40237 792.6836L771.66018 745.625C778.1211 741.2422 784.1719 736.3008 789.75 730.875L836.39846 740.89456C843.7656 731.14456 850.1289 720.59768 855.33596 709.40237L824.0117 674.7617C826.51956 666.53128 828.2461 657.96487 829.10159 649.1406" fill="#4f4c4c"/>
</g>
<g clip-path="url(#clip_20)">
<path transform="matrix(.061804568,0,0,.06151938,530.1974,2.4012895)" d="M934.04299 572.6758C902 572.6758 876.02346 546.6992 876.02346 514.65628 876.02346 482.61329 902 456.63673 934.04299 456.63673 966.08596 456.63673 992.0625 482.61329 992.0625 514.65628 992.0625 546.6992 966.08596 572.6758 934.04299 572.6758ZM1008.25 521.96096 1032.0195 509.38673C1031.6602 502.6211 1030.6211 496.03517 1028.9609 489.70314L1002.9414 486.10157C1000.8086 480.96876 998.125 476.1172 994.95706 471.63673L1005.0117 446.90235C1000.58987 442.27345 995.71487 438.07423 990.46487 434.3789L968.1992 448.35548C963 445.67189 957.4414 443.58595 951.6211 442.1797L943.4961 416.9922C940.3867 416.6953 937.2344 416.53907 934.04299 416.53907 930.85549 416.53907 927.7031 416.6953 924.59378 416.9922L916.46878 442.1797C910.64456 443.58595 905.08987 445.67189 899.8906 448.35548L877.625 434.3789C872.3711 438.07423 867.5 442.27345 863.0781 446.90235L873.1328 471.63673C869.96096 476.1172 867.27737 480.96876 865.14456 486.10157L839.1328 489.70314C837.47268 496.03517 836.4258 502.6211 836.0703 509.38673L859.83596 521.96096C860.3203 526.9414 861.29299 531.77737 862.71096 536.4219L845.02737 555.97268C847.96878 562.29299 851.5586 568.2461 855.71487 573.75L882.0469 568.09378C885.1953 571.15628 888.6094 573.9453 892.2578 576.41799L891.27346 602.98049C897.60159 606.0508 904.3047 608.46096 911.3008 610.1172L927.7656 588.9531C929.83596 589.1289 931.9297 589.22268 934.04299 589.22268 936.16018 589.22268 938.2539 589.1289 940.3242 588.9531L956.78518 610.1172C963.78128 608.46096 970.4883 606.0508 976.8164 602.98049L975.83206 576.41799C979.48049 573.9453 982.89456 571.15628 986.03909 568.09378L1012.3711 573.75C1016.53128 568.2461 1020.1211 562.29299 1023.0586 555.97268L1005.3789 536.4219C1006.78909 531.77737 1007.76956 526.9414 1008.25 521.96096" fill="#4f4c4c"/>
</g>
<g clip-path="url(#clip_21)">
<path transform="matrix(.061804568,0,0,.06151938,530.1974,2.4012895)" d="M152.5039 271.85548C102.62891 271.85548 62.195314 231.42188 62.195314 181.54297 62.195314 131.66407 102.62891 91.234378 152.5039 91.234378 202.38282 91.234378 242.8164 131.66407 242.8164 181.54297 242.8164 231.42188 202.38282 271.85548 152.5039 271.85548ZM268.01564 192.91407 305.01173 173.34375C304.45314 162.8125 302.82814 152.5625 300.2422 142.70313L259.75 137.10157C256.4336 129.10547 252.2539 121.55859 247.3164 114.58594L262.96876 76.08594C256.08595 68.875 248.5 62.339845 240.32813 56.585939L205.66797 78.34375C197.57422 74.16797 188.92578 70.91797 179.86328 68.73047L167.21875 29.523438C162.375 29.058594 157.46875 28.820313 152.5039 28.820313 147.54297 28.820313 142.63672 29.058594 137.79297 29.523438L125.14453 68.73047C116.08594 70.91797 107.43359 74.16797 99.34375 78.34375L64.68359 56.585939C56.51172 62.339845 48.92578 68.875 42.039064 76.08594L57.691408 114.58594C52.757814 121.55859 48.578126 129.10547 45.257814 137.10157L4.7695314 142.70313C2.183594 152.5625 .55859407 162.8125 0 173.34375L36.992189 192.91407C37.746095 200.66407 39.265626 208.19532 41.46875 215.42578L13.9453129 245.85938C18.519532 255.69532 24.109375 264.96485 30.582032 273.52735L71.57031 264.72267C76.46875 269.4922 81.78125 273.83595 87.46094 277.6836L85.92969 319.02735C95.77734 323.8047 106.21484 327.5547 117.10547 330.14064L142.73047 297.1953C145.95313 297.46485 149.21094 297.60939 152.5039 297.60939 155.79688 297.60939 159.05469 297.46485 162.28125 297.1953L187.90625 330.14064C198.79688 327.5547 209.23438 323.8047 219.08203 319.02735L217.55078 277.6836C223.22657 273.83595 228.54297 269.4922 233.4414 264.72267L274.4297 273.52735C280.89845 264.96485 286.4922 255.69532 291.0625 245.85938L263.54298 215.42578C265.7461 208.19532 267.26173 200.66407 268.01564 192.91407" fill="#4f4c4c"/>
</g>
<g clip-path="url(#clip_22)">
<text fill="#262647" xml:space="preserve" transform="matrix(.7506297 0 0 .7506297 234.26879 398.86564)" font-size="21.33" font-family="Aileron" font-weight="bold"><tspan y="34" x="0 22.757622 40.78038 56.435708 72.70955 78.5539 93.39876 109.52331 124.517459 139.3623 155.01763 162.95214 177.79698 195.7131 212.73343">WORK EXPERIENCE</tspan></text>
<text fill="#262647" xml:space="preserve" transform="matrix(.7506297 0 0 .7506297 346.56288 441.8416)" font-size="16" font-family="Aileron"><tspan y="14" x="0 10.00002 19.424036 25.344056 34.208074 38.65609 47.760114 57.184129 61.28014 66.76815 70.86417 75.72819 85.85622 93.84023 99.48825 108.624279 113.21629 117.80831 126.944339 132.59235 137.04036 147.05638 157.1844 161.28041 171.31243 181.44045 191.92047 196.36849 206.4965 215.92052 225.34453">Service / Installation Engineer</tspan></text>
<text fill="#262647" xml:space="preserve" transform="matrix(.7506297 0 0 .7506297 346.81736 560.9103)" font-size="16" font-family="Aileron"><tspan y="14" x="0 9.344029 19.456049 29.584076 34.032094 44.04812 49.968137 54.064149 64.06417 73.48819 79.40821 88.27223 92.72025 101.82428 111.2483 115.344318 120.83233 124.928348 129.79236 139.92038 147.90439 153.5524 162.68842 167.28043 171.87244 181.00846 186.65647 191.10448 201.1205">Junior Service / Installation</tspan></text>
<text fill="#262647" xml:space="preserve" transform="matrix(.7506297 0 0 .7506297 346.81736 560.9103)" font-size="16" font-family="Aileron"><tspan y="30" x="0 10.032018 20.160044 30.640076 35.088094 45.216119 54.640134 64.06415">Engineer</tspan></text>
<text fill="#262647" xml:space="preserve" transform="matrix(.7506297 0 0 .7506297 346.81736 679.9401)" font-size="16" font-family="Aileron"><tspan y="14" x="0 12.320027 21.744044 30.880066 41.360097 45.45611 56.128126 65.264148 71.184169 75.63219 83.6162 89.26422">Head Barista</tspan></text>
<text fill="#262647" xml:space="preserve" transform="matrix(.7506297 0 0 .7506297 346.81736 459.84916)" font-size="13.33" font-family="Aileron"><tspan y="11" x="0 8.516647 16.313569 24.470353 27.349213 35.012865 42.82312 50.72667 58.92343 66.73369">AST London</tspan></text>
<text fill="#262647" xml:space="preserve" transform="matrix(.7506297 0 0 .7506297 346.81736 591.0256)" font-size="13.33" font-family="Aileron"><tspan y="11" x="0 8.516647 16.313569 24.470353 27.349213 35.012865 42.82312 50.72667 58.92343 66.73369">AST London</tspan></text>
<text fill="#262647" xml:space="preserve" transform="matrix(.7506297 0 0 .7506297 346.81736 697.9477)" font-size="13.33" font-family="Aileron"><tspan y="11" x="0 7.9701845 17.792969 27.242569 30.12143 37.67845 45.48871 53.298967 61.495729 64.37459 67.666629 71.83832 80.03508 82.967258 85.846118 93.509769 101.32002 109.22357 117.420337 125.23059">POD Food ltd, London</tspan></text>
<text fill="#262647" xml:space="preserve" transform="matrix(.7506297 0 0 .7506297 234.26879 437.3979)" font-size="16" font-family="Aileron"><tspan y="20" x="0 9.280014 18.560029 27.840043 37.120058 40.576066 44.960069 48.416078 57.9841 63.264116 72.04813 79.392139 88.17615 97.66417">2017 - Present</tspan></text>
<text fill="#262647" xml:space="preserve" transform="matrix(.7506297 0 0 .7506297 234.26879 556.5643)" font-size="16" font-family="Aileron"><tspan y="20" x="0 9.280014 18.560029 27.840043 37.120058 40.576066 44.960069 54.24008 63.520097 72.80011">2016 -2017</tspan></text>
<text fill="#4b4b57" xml:space="preserve" transform="matrix(.7506297 0 0 .7506297 346.81736 475.46226)" font-size="12" font-family="Aileron"><tspan y="12" x="0 7.02005 13.608093 17.568116 23.73616 26.592179 32.940217 35.796236 42.912279 50.292329 52.884355 59.256395 66.37244 73.75249 76.34451 79.20053 86.316577 91.824619 95.58064 101.95268 104.9167 107.88072 110.73674 117.85278">Servicing and installing</tspan></text>
<text fill="#4b4b57" xml:space="preserve" transform="matrix(.7506297 0 0 .7506297 346.81736 475.46226)" font-size="12" font-family="Aileron"><tspan y="12" x="125.21875 127.810779">  </tspan></text>
<text fill="#4b4b57" xml:space="preserve" transform="matrix(.7506297 0 0 .7506297 346.81736 475.46226)" font-size="12" font-family="Aileron"><tspan y="12" x="130.39063 137.77068 144.80272 151.83477 155.79479 158.38681 164.97486 172.0909 175.84693 179.80695 185.96298 188.55501 194.06305 200.21909 205.72713 209.48316 216.0712 226.33127 231.83931">door entry systems,</tspan></text>
<text fill="#4b4b57" xml:space="preserve" transform="matrix(.7506297 0 0 .7506297 346.81736 475.46226)" font-size="12" font-family="Aileron"><tspan y="28" x="0 6.37204 12.7200779 19.068116 25.656159 31.1642 36.67224 39.264268 45.612306 52.64435 59.76039 63.51642 67.47644 74.508487 77.4725 80.06453 85.57257 91.72861 97.23665 100.992679 107.58072 117.84079 123.34883 125.94086 132.3129 139.42894 146.80899 149.40102 155.74906 162.09709 165.85312 172.02117 174.61319 180.12123 186.27727 191.78531 195.54134 202.12938 212.38945 217.89749">access control systems and cctv systems.</tspan></text>
<text fill="#4b4b57" xml:space="preserve" transform="matrix(.7506297 0 0 .7506297 346.81736 607.15347)" font-size="12" font-family="Aileron"><tspan y="12" x="0 7.02005 14.136093 20.508133 27.888184 34.920228 44.340288 47.196306 54.312349 61.692399 64.284427 69.792469 76.38051 83.49655 86.35257 93.38461 97.344638 99.93666 106.524707 113.64075 121.0208 123.876819 130.99286 137.5809 144.16895 148.12897 153.63701 156.27703 158.86905 167.7131 174.82915 177.42118 181.1772 185.13722 191.50926 194.36528 201.48133 204.33734 211.45339 218.83344 221.42546 224.90549 231.93753">Shadowing senior engineers. On training for</tspan></text>
<text fill="#4b4b57" xml:space="preserve" transform="matrix(.7506297 0 0 .7506297 346.81736 607.15347)" font-size="12" font-family="Aileron"><tspan y="28" x="0 5.5080416 12.096085 16.056107 22.224152 25.08017 31.428208 38.01625 40.608278 46.980318 54.09636 61.47641 64.068439 66.92445 74.0405 79.54854 83.304569 89.676609 92.640628 95.604648 101.976688 105.73271 108.58873 115.62077 122.73682">service and installation.</tspan></text>
<text fill="#4b4b57" xml:space="preserve" transform="matrix(.7506297 0 0 .7506297 346.81736 716.56338)" font-size="12" font-family="Aileron"><tspan y="12" x="0 4.3680269 15.792114 22.380158 28.9682 35.23224 38.19626 44.352296 46.94432 50.904344 57.492387 64.82443 71.856479 75.8165 79.572528 85.08057 87.67259 94.04463 101.160678 108.540729 111.13275 117.50479 124.620838 130.99288 133.9569 140.11293 145.62097 148.47699 153.98503 156.57706 160.05709 167.08913 171.04915 173.64118 183.90125 190.27329 197.38933 203.76137 211.14142 217.72946 227.98954 234.57758 241.69362">&#x2022;Weekly reports and analysis for management</tspan></text>
<text fill="#4b4b57" xml:space="preserve" transform="matrix(.7506297 0 0 .7506297 346.81736 716.56338)" font-size="12" font-family="Aileron"><tspan y="28" x="0 4.3680269 6.9600527 14.136108 18.09613 25.128174 31.296219 34.152238 41.532289 44.388307 51.50435 58.8844 61.476427 68.80847 72.76849 79.80054 83.28056 89.86861 95.37665 100.88469 103.74071 110.77275 117.888797 124.26083 127.22485 129.81688 133.5729 137.53293 143.90497 146.76099 153.87703 156.73305 163.84909">&#x2022; Providing professional training</tspan></text>
<text fill="#4b4b57" xml:space="preserve" transform="matrix(.7506297 0 0 .7506297 346.81736 716.56338)" font-size="12" font-family="Aileron"><tspan y="28" x="171.21875"> </tspan></text>
<text fill="#4b4b57" xml:space="preserve" transform="matrix(.7506297 0 0 .7506297 346.81736 716.56338)" font-size="12" font-family="Aileron"><tspan y="44" x="0 4.3680269 6.9600527 15.348114 22.452164 27.960206 31.716233 38.748277 49.008348 55.59639 59.55641 62.148439 69.16849 75.75653 79.71655 85.8846 88.740619 95.08865">&#x2022; Customer Service</tspan></text>
<text fill="#4b4b57" xml:space="preserve" transform="matrix(.7506297 0 0 .7506297 346.81736 716.56338)" font-size="12" font-family="Aileron"><tspan y="44" x="101.671878"> </tspan></text>
<text fill="#4b4b57" xml:space="preserve" transform="matrix(.7506297 0 0 .7506297 346.81736 716.56338)" font-size="12" font-family="Aileron"><tspan y="60" x="0 4.3680269 6.9600527 13.980103 17.73613 24.768174 31.11621 37.38025 39.972276 47.088319 53.460359 60.5764 67.95645 70.92047 73.77649 80.89253">&#x2022; Stock handling</tspan></text>
<text fill="#4b4b57" xml:space="preserve" transform="matrix(.7506297 0 0 .7506297 346.81736 716.56338)" font-size="12" font-family="Aileron"><tspan y="60" x="88.265628"> </tspan></text>
<text fill="#4b4b57" xml:space="preserve" transform="matrix(.7506297 0 0 .7506297 346.81736 716.56338)" font-size="12" font-family="Aileron"><tspan y="76" x="0 4.3680269 12.876083 19.464127 25.836167 28.800187 31.656205 38.772249 46.152299 48.744325 58.164384 61.0204 64.77643 71.89247 74.4845 79.99254 87.09659 94.428638 101.76068 104.7247 107.58072 114.16876 118.128787">&#x2022;Dealing with suppliers</tspan></text>
<text fill="#4b4b57" xml:space="preserve" transform="matrix(.7506297 0 0 .7506297 346.81736 716.56338)" font-size="12" font-family="Aileron"><tspan y="76" x="123.625"> </tspan></text>
<text fill="#4b4b57" xml:space="preserve" transform="matrix(.7506297 0 0 .7506297 346.81736 716.56338)" font-size="12" font-family="Aileron"><tspan y="92" x="0 4.3680269 14.760101 21.132142 23.98816 31.104203 34.86023 41.448274 48.564317 54.936357 62.0524 68.40044">&#x2022;Maintenance</tspan></text>
<text fill="#262647" xml:space="preserve" transform="matrix(.7506297 0 0 .7506297 234.26879 236.3589)" font-size="21.33" font-family="Aileron" font-weight="bold"><tspan y="34" x="0 14.844855 32.142457 48.821527 65.84186 81.96641 96.960559 104.89507 122.91783">EDUCATION</tspan></text>
<text fill="#262647" xml:space="preserve" transform="matrix(.7506297 0 0 .7506297 346.81736 279.33494)" font-size="16" font-family="Aileron" font-weight="bold"><tspan y="14" x="0 12.128026 22.624049 34.960084 40.2721 51.728128 55.472135 66.080158 75.96818 85.5842 96.160228 106.73625 111.63227 121.24829 130.88031 135.98432 139.72832 150.09635 159.71236 170.28838 180.62439 190.9604 196.0644 200.62442 204.36843 216.24045">CEDIA Technical School, UK</tspan></text>
<text fill="#262647" xml:space="preserve" transform="matrix(.7506297 0 0 .7506297 346.81736 334.15473)" font-size="16" font-family="Aileron" font-weight="bold"><tspan y="14" x="0 11.872029 22.448054 27.34407 37.04009 46.92811 53.64813 62.240144 67.13616 73.552188 83.232219 86.97623 97.31225 103.36026 107.10427 117.712299 127.34432 137.92035 148.49637 158.83238 169.4084 174.30442 183.93643 188.49645 192.24045 204.91248 215.44049 226.01651 236.97653 246.60855 253.32857">University of Pannonia, Hungary</tspan></text>
<text fill="#262647" xml:space="preserve" transform="matrix(.7506297 0 0 .7506297 346.81736 292.7681)" font-size="13.33" font-family="Aileron"><tspan y="13" x="0 8.516647 16.406876 24.603638 27.775727 35.585985 39.23787 47.52794 50.700029 56.81761 64.70784 71.78505">Audio-Visual</tspan></text>
<text fill="#262647" xml:space="preserve" transform="matrix(.7506297 0 0 .7506297 346.81736 292.7681)" font-size="13.33" font-family="Aileron"><tspan y="13" x="75.0625 77.94136">  </tspan></text>
<text fill="#262647" xml:space="preserve" transform="matrix(.7506297 0 0 .7506297 346.81736 292.7681)" font-size="13.33" font-family="Aileron"><tspan y="13" x="80.8125 88.969287 96.28639 103.336948 111.24049 119.14404 122.31613 129.36669 132.53878 139.61598 147.51953 150.39839 158.22197 166.01889 174.17568 181.90596 185.94437 193.76795 201.56487 209.72165">Technician EST1/EST2</tspan></text>
<text fill="#262647" xml:space="preserve" transform="matrix(.7506297 0 0 .7506297 346.81736 347.50593)" font-size="13.33" font-family="Aileron"><tspan y="13" x="0 11.542114 18.619324 24.736908 28.9086 36.225709 40.623979 43.50284 51.313097 55.178239 58.0571 65.88068 73.784229 81.98099 85.153079 93.056629 100.37373 107.69084 112.08911 115.2612 123.16475 131.36151 134.24037 145.78249 152.8597 160.76325 167.84046 176.03722 183.35433 194.74983 202.06694 209.97049">Master of Engineering Management</tspan></text>
<text fill="#262647" xml:space="preserve" transform="matrix(.7506297 0 0 .7506297 234.26879 275.13816)" font-size="16" font-family="Aileron"><tspan y="20" x="0 9.280014 18.560029 27.840043">2011</tspan></text>
<text fill="#262647" xml:space="preserve" transform="matrix(.7506297 0 0 .7506297 234.6812 327.10563)" font-size="16" font-family="Aileron"><tspan y="20" x="0 9.280014 18.560029 27.840043 37.120058 40.576066 44.960069 48.416078 57.69609 66.976108 76.25612">2003 - 2010</tspan></text>
<text xml:space="preserve" transform="matrix(.7506297 0 0 .7506297 42.621084 236.3589)" font-size="21.33" font-family="Aileron" font-weight="bold"><tspan y="34" x="0 14.844855 30.969407 45.963556 60.80841 76.46374 91.457889 99.3924 114.066638">EXPERTISE</tspan></text>
<text xml:space="preserve" transform="matrix(.7506297 0 0 .7506297 42.621084 398.86564)" font-size="21.33" font-family="Aileron" font-weight="bold"><tspan y="34" x="0 14.588904 30.713456 48.62957 66.05513 82.7342 98.85875 116.28431">LANGUAGE</tspan></text>
<text xml:space="preserve" transform="matrix(.7506297 0 0 .7506297 42.621084 517.41506)" font-size="21.33" font-family="Aileron" font-weight="bold"><tspan y="34" x="0 17.020333 31.865189 47.520517 62.514665 70.44918 84.80348 92.738 109.75833 125.88288 140.87703">CERTIFICATE</tspan></text>
<text xml:space="preserve" transform="matrix(.7506297 0 0 .7506297 42.621084 677.89846)" font-size="21.33" font-family="Aileron" font-weight="bold"><tspan y="34" x="0 17.020333 35.04309 52.959207 67.953357 84.0779 101.098239">CONTACT</tspan></text>
<text xml:space="preserve" transform="matrix(.7506297 0 0 .7506297 44.30786 273.49003)" font-size="13.33" font-family="Aileron"><tspan y="18" x="0 9.4496 17.259858 25.070115 29.468384 40.680578 47.997686 55.901235 60.072927 64.47119 71.30849 82.52068 88.63827 95.47556 101.59315 105.76484 113.08195 124.477458 130.59503 133.5272 144.7394 148.93775 152.45636 160.35991 164.5316 168.92987 176.00708 180.17877 187.98903 195.89258 203.20969">Door entry systems: (Intratone,</tspan></text>
<text xml:space="preserve" transform="matrix(.7506297 0 0 .7506297 44.30786 273.49003)" font-size="13.33" font-family="Aileron"><tspan y="47" x="0 7.823578 15.727127 19.898819 24.297089 32.107347 36.279039 43.596147 50.646699 53.578874 56.457735 64.60118 72.74463 76.91632 79.848499 82.727359 91.08406 98.40117 101.69321 104.985248 107.91742 110.79628 119.08635 122.25844 130.4552 137.77231 144.19644 147.12862 150.00748 152.93965 155.87183 158.804">Entrotec, bpt, Bell, Videx, ...)</tspan></text>
<text xml:space="preserve" transform="matrix(.7506297 0 0 .7506297 44.30786 273.49003)" font-size="13.33" font-family="Aileron"><tspan y="76" x="0 8.516647 15.5672 22.617753 29.93486 36.052446 42.17003 46.38222 53.432775 61.24303 69.146579 73.31827 77.71654 85.526798 88.81883 93.03103 99.14861 105.98591 112.10349 116.275188 123.59229 134.9878 141.10538 145.31757 149.51592 153.03453 160.93808 165.10977 169.50804 176.58525 180.75695 188.5672 196.47075 203.78786">Access control systems (Intratone,</tspan></text>
<text xml:space="preserve" transform="matrix(.7506297 0 0 .7506297 44.30786 273.49003)" font-size="13.33" font-family="Aileron"><tspan y="105" x="0 7.9701845 15.047394 21.471528 25.643219 33.453477 41.357027 44.2892 47.16806 55.138246 62.215456 69.26601 72.19818 75.07704 83.19383 94.73595 102.53287 105.41173 108.3439 111.27608 114.20825">Paxton, Pac, KMS ...)</tspan></text>
<text xml:space="preserve" transform="matrix(.7506297 0 0 .7506297 44.30786 273.49003)" font-size="13.33" font-family="Aileron"><tspan y="134" x="0 9.31633 18.63266 26.789444 35.079515 37.958375 44.07596 50.913255 57.030839 61.20253 68.51964 79.915149 86.03273 88.91159 93.10994 96.628559 106.078159 109.59677 117.39369 120.32587 123.20473 132.93422 136.10631 143.06357 153.52611 156.6982 162.81578 165.98787 173.79813 181.70168 184.58054 187.51271 190.44489 193.37706">CCTV systems (IDIS, Hikwision ...)</tspan></text>
<text xml:space="preserve" transform="matrix(.7506297 0 0 .7506297 44.30786 435.99674)" font-size="13.33" font-family="Aileron"><tspan y="18" x="0 7.823578 15.727127 23.92389 27.215928 30.388016 36.5056 44.40915 47.28801 51.48636 55.3515 58.64354 66.53377 73.850879 81.754428 85.92612">English (fluent)</tspan></text>
<text xml:space="preserve" transform="matrix(.7506297 0 0 .7506297 44.30786 435.99674)" font-size="13.33" font-family="Aileron"><tspan y="47" x="0 9.729492 17.61972 25.52327 33.72003 40.79724 45.19551 48.3676 55.44481 63.34836 66.22722 70.42557 78.32912 85.40633 89.57802 92.75011 99.60074 106.91785">Hungarian (native)</tspan></text>
<text xml:space="preserve" transform="matrix(.7506297 0 0 .7506297 44.30786 435.99674)" font-size="13.33" font-family="Aileron"><tspan y="76" x="0 7.250473 14.3276829 22.47113 29.54834 37.45189 44.768999 50.88658 58.20369 61.08255 65.2809 73.42435 80.50156 86.61914 89.79123 96.84178">Japanese (basic)</tspan></text>
<text xml:space="preserve" transform="matrix(.7506297 0 0 .7506297 42.621084 556.25717)" font-size="16" font-family="Aileron"><tspan y="14" x="0 10.208028 19.34405 27.696076 33.34409 43.360116 53.48814 57.584154 69.71218 79.1362 84.78422 94.70424 98.800258 104.48027 114.40029 124.32031 128.41632 133.90433 138.00034 147.92035 157.84037 167.76038 177.68039">Paxton Net2 (10 / 2022)</tspan></text>
<text xml:space="preserve" transform="matrix(.7506297 0 0 .7506297 42.621084 596.0441)" font-size="16" font-family="Aileron"><tspan y="14" x="0 10.208028 20.752055 25.616074 37.7441 49.568124 59.60014 69.52016 73.61617 83.3282 93.34423 103.45625 113.58428 124.064319 133.20034 138.84835 143.29636 153.31238 163.4404 167.5364 171.98442">PRINCE2 Foundation in</tspan></text>
<text xml:space="preserve" transform="matrix(.7506297 0 0 .7506297 42.621084 596.0441)" font-size="16" font-family="Aileron"><tspan y="30" x="0 10.208028 16.128046 26.144074 30.512089 39.936105 49.040128 54.68814 58.784154 73.28019 82.416217 92.54424 101.68027 112.1603 121.58432 135.90435 145.32836 155.45638 161.10439 165.2004 170.8804 180.80042 190.72043 200.64044 210.56046">Project Management (2017)</tspan></text>
<text fill="#545454" xml:space="preserve" transform="matrix(.7506297 0 0 .7506297 42.621084 573.03488)" font-size="14.66" font-family="Aileron"><tspan y="14" x="0 3.8692628 12.560455 16.576279 25.267472 33.856065 42.532594 49.259843 57.306154 60.47191 65.059329 69.895908 77.678409 81.16661 89.8578 93.34601 102.0372 111.05083 114.21658 123.171588 130.69028 133.85604 142.6205 150.403 157.46735 162.05477 170.64336">In-house training by Paxton</tspan></text>
<text xml:space="preserve" transform="matrix(.7506297 0 0 .7506297 63.03913 771.4632)" font-size="13.33" font-family="HKGrotesk"><tspan y="13" x="0 6.6119997 12.703369 19.315369 22.419632 25.6996 32.3116 39.574388 42.854356 49.557466 53.156328 60.34102 67.61682 74.87961 82.09033 85.68919 90.83693 97.54004 104.82886 112.01355 118.71666 124.300418">available upon request</tspan></text>
<text xml:space="preserve" transform="matrix(.7506297 0 0 .7506297 63.03913 745.9081)" font-size="13.33" font-family="HKGrotesk"><tspan y="13" x="0 6.6119997 10.861649 15.111298 18.21556 21.49553 28.107529 32.441774 39.144884 42.249147 47.8329 50.937166 57.028535 63.640535 70.85126 84.381137 91.00615 101.99144 108.60344 111.7077 114.98767 119.321918 125.615039 132.87783">attila.kisivan@gmail.com</tspan></text>
<text xml:space="preserve" transform="matrix(.7506297 0 0 .7506297 63.03913 721.18179)" font-size="13.33" font-family="HKGrotesk"><tspan y="13" x="0 6.6119997 12.703369 19.315369 22.419632 25.6996 32.3116 39.574388 42.854356 49.557466 53.156328 60.34102 67.61682 74.87961 82.09033 85.68919 90.83693 97.54004 104.82886 112.01355 118.71666 124.300418">available upon request</tspan></text>
<text xml:space="preserve" transform="matrix(.7506297 0 0 .7506297 147.07366 43.063684)" font-size="37.33" font-family="Aileron" font-weight="bold"><tspan y="35" x="0"> </tspan></text>
<text xml:space="preserve" transform="matrix(.7506297 0 0 .7506297 147.07366 43.063684)" font-size="37.33" font-family="Aileron" font-weight="bold"><tspan y="35" x="10.21875 38.43934 64.68153 90.92374 104.81028 130.34325 158.56385 168.79224 197.27414 211.16069 236.84297 250.87885 264.76539 293.4339 321.65449">ATTILA KIS-IVAN</tspan></text>
<text fill="#545454" xml:space="preserve" transform="matrix(.7506297 0 0 .7506297 123.69344 84.80195)" font-size="16" font-family="Aileron"><tspan y="17" x="53.359376 66.55944 79.791507 93.53557 107.327648 115.39171 130.41577 143.64783 150.94388 159.63193 166.92798 174.99204 190.3201 203.52016 217.15222 231.21628 244.25634 257.2964 264.59245 277.8245 293.15257 308.3526 316.41667 331.74473 344.97679 358.20884">SERVICE / INSTALL ENGINEER</tspan></text>
<text fill="#545454" xml:space="preserve" transform="matrix(.7506297 0 0 .7506297 42.43614 127.63787)" font-size="13.33" font-family="Aileron"><tspan y="13" x="0 11.542114 19.352372 23.524064 26.696152 33.546785 40.623994 44.795686 52.112794 60.309556 63.188417 70.98534 78.302448 82.700717 89.551349 92.723438 99.77399">Motivated Service</tspan></text>
<text fill="#545454" xml:space="preserve" transform="matrix(.7506297 0 0 .7506297 42.43614 127.63787)" font-size="13.33" font-family="Aileron"><tspan y="13" x="107.078128 109.956989">  </tspan></text>
<text fill="#545454" xml:space="preserve" transform="matrix(.7506297 0 0 .7506297 42.43614 127.63787)" font-size="13.33" font-family="Aileron"><tspan y="13" x="112.828128 119.905338 127.80888 136.00565 138.8845 142.40312 150.30667 156.42426 160.59595 167.67316 170.9652 174.25724 177.1361 184.95967 192.86322 201.05998 204.23207 212.13562 219.45273 226.76984 231.1681 234.04697 244.5095 247.6816 251.85329 259.75685 262.63569 270.36598 278.09626 280.9751 287.81239 295.1295 302.2067 306.60499 312.72257 315.60145 323.41169 327.27684 330.1557 338.29914 342.6974 350.50764 358.7044 363.10267 370.41978 376.53736 382.65495 385.82704 392.67768 399.99479 402.87367 410.19078 416.6149 424.75837 432.07548 436.47377 439.64585 446.96296 454.86653 461.91706 469.23417 472.11305 475.28514 483.18867 486.0675 490.2392 498.14277 505.45988 508.33876 517.7883 525.5986 533.4088">and Install Engineer with 6+ years of progressive experience in the Door</tspan></text>
<text fill="#545454" xml:space="preserve" transform="matrix(.7506297 0 0 .7506297 42.43614 127.63787)" font-size="13.33" font-family="Aileron"><tspan y="13" x="537.7969 540.6757">  </tspan></text>
<text fill="#545454" xml:space="preserve" transform="matrix(.7506297 0 0 .7506297 42.43614 127.63787)" font-size="13.33" font-family="Aileron"><tspan y="13" x="543.5469 551.3705 559.27407 563.44577 567.844 574.6813 577.5601 584.6373 592.5409 600.7377 603.6165 612.1332 619.1837 626.23428 633.5514 639.66897">Entry and Access</tspan></text>
<text fill="#545454" xml:space="preserve" transform="matrix(.7506297 0 0 .7506297 42.43614 127.63787)" font-size="13.33" font-family="Aileron"><tspan y="13" x="645.78128"> </tspan></text>
<text fill="#545454" xml:space="preserve" transform="matrix(.7506297 0 0 .7506297 42.43614 127.63787)" font-size="13.33" font-family="Aileron"><tspan y="31" x="0"> </tspan></text>
<text fill="#545454" xml:space="preserve" transform="matrix(.7506297 0 0 .7506297 42.43614 127.63787)" font-size="13.33" font-family="Aileron"><tspan y="31" x="2.875 12.19133 20.001587 27.905137 32.076829 36.475099 44.285356 47.577394 50.456254 57.77336 65.67691 73.87367 77.04576 84.94931 92.26642 99.58353 103.9818 107.153888 115.057437 123.254199 126.13306 129.30515 137.2087 145.40546 153.29569 159.41327 163.58496 167.98323 174.82053">Control engineering industry.</tspan></text>
<text fill="#545454" xml:space="preserve" transform="matrix(.7506297 0 0 .7506297 42.43614 127.63787)" font-size="13.33" font-family="Aileron"><tspan y="49" x="0 7.823578 15.727127 23.044236 27.442505 35.639268 42.956377 47.128068 50.300157 57.350709 60.22957 66.34715 73.66426 76.9563 80.82144 84.47333 90.59091 94.7626 101.83981 106.23808 110.409778 117.72688 122.12515 125.05733 127.93619 136.13295 143.45006 147.62175 154.69896 157.87105 161.16309 164.04195 171.8522 176.25048 179.42256 186.73967 194.64322 198.81491 206.13202 214.32878 217.20764 224.28485 232.1884 240.38516 243.26403 250.34123 258.48469 261.77674 269.09385 271.97273 276.1444 283.95466 286.8335 294.73707 301.81428 308.66493 311.837 320.03376 327.11097 331.28266 338.59977 341.47865 349.3822 352.5543 360.75105 368.6546 372.3065 378.42408 382.59577 386.99403 394.31114 400.4287 406.5463 409.42518 415.54277 418.71485 422.88655 430.77677 437.85398 442.02568 445.19776 453.008 460.91157 467.02915 469.90803 476.98524 484.8888 493.08558 495.96443 503.04164 510.09217 517.9957 521.16787 528.485 535.33566 542.6527 545.53158 553.72836 561.5386 568.6158 571.90786 578.0254 580.90426 588.7145 596.61807 599.4969 603.6686 606.8407 618.2362 625.55337">Energetic self-starter, detail oriented and able to navigate high-stress situations and achieve goals on time.</tspan></text>
<text xml:space="preserve" transform="matrix(.7506297 0 0 .7506297 44.30786 630.0027)" font-size="16" font-family="Aileron"><tspan y="14" x="0 14.4960379 24.496058 33.600084 37.696096 47.72811 57.856138 68.33617 72.78419 82.91222 92.336238 101.760257 107.680278 112.128299 122.256328">MSc Engineering</tspan></text>
<text xml:space="preserve" transform="matrix(.7506297 0 0 .7506297 44.30786 630.0027)" font-size="16" font-family="Aileron"><tspan y="30" x="0 14.4960379 23.63206 33.760087 42.896108 53.376138 62.80015 77.12018 86.5442 96.672229 102.320247 106.41626 112.096279 122.0163 131.93631 141.85633 151.77634 155.87235 160.89635 164.99236 174.91237 184.83238 194.7524 204.67241">Management (2003 - 2010)</tspan></text>
<text fill="#262647" xml:space="preserve" transform="matrix(.7506297 0 0 .7506297 230.93582 675.3764)" font-size="16" font-family="Aileron"><tspan y="20" x="0 9.280014 18.560029 27.840043 37.120058 40.576066 44.960069 48.416078 57.69609 66.976108 76.25612">2010 - 2016</tspan></text>
</g>
<g clip-path="url(#clip_23)">
<path transform="matrix(-.061804568,0,0,.06151938,66.50093,2.4012895)" d="M562.4922 396.3828C481.14064 396.3828 415.1953 330.4375 415.1953 249.08985 415.1953 167.73828 481.14064 101.79297 562.4922 101.79297 643.83987 101.79297 709.78518 167.73828 709.78518 249.08985 709.78518 330.4375 643.83987 396.3828 562.4922 396.3828ZM750.8867 267.6328 811.22268 235.71485C810.3125 218.53907 807.66018 201.82032 803.4453 185.73828L737.40628 176.60157C731.9961 163.5625 725.1758 151.25782 717.1289 139.8789L742.65237 77.08594C731.4258 65.328128 719.0547 54.671876 705.72659 45.285158L649.1953 80.77344C635.9961 73.96094 621.8906 68.66406 607.1133 65.08984L586.4844 1.148438C578.58987 .39453105 570.58596 .00390625 562.4922 .00390625 554.39456 .00390625 546.39456 .39453105 538.4961 1.148438L517.8711 65.08984C503.08985 68.66406 488.98439 73.96094 475.78517 80.77344L419.2578 45.285158C405.92579 54.671876 393.5547 65.328128 382.32814 77.08594L407.85548 139.8789C399.8047 151.25782 392.98439 163.5625 387.57814 176.60157L321.53517 185.73828C317.3203 201.82032 314.66798 218.53907 313.76173 235.71485L374.09376 267.6328C375.32423 280.27735 377.80079 292.5547 381.39454 304.34376L336.5039 353.98439C343.96485 370.02735 353.08595 385.14064 363.64064 399.10939L430.48829 384.7539C438.47657 392.52735 447.14454 399.61329 456.40626 405.89064L453.90626 473.3203C469.96876 481.11329 486.9922 487.22657 504.7539 491.4453L546.5508 437.71485C551.8047 438.15235 557.1211 438.39064 562.4922 438.39064 567.8594 438.39064 573.1758 438.15235 578.4336 437.71485L620.22659 491.4453C637.9883 487.22657 655.0117 481.11329 671.0742 473.3203L668.5742 405.89064C677.83596 399.61329 686.5039 392.52735 694.4922 384.7539L761.34378 399.10939C771.89846 385.14064 781.0156 370.02735 788.47659 353.98439L743.58987 304.34376C747.1836 292.5547 749.65628 280.27735 750.8867 267.6328" fill="#4f4c4c"/>
</g>
<g clip-path="url(#clip_24)">
<path transform="matrix(-.061804568,0,0,.06151938,66.50093,2.4012895)" d="M697.6289 738.9922C640.8594 738.9922 594.83596 692.96878 594.83596 636.1992 594.83596 579.4297 640.8594 533.40628 697.6289 533.40628 754.39846 533.40628 800.4219 579.4297 800.4219 636.1992 800.4219 692.96878 754.39846 738.9922 697.6289 738.9922ZM829.10159 649.1406 871.20706 626.8672C870.5742 614.8789 868.72268 603.21487 865.78128 591.9883L819.6953 585.6133C815.91799 576.5156 811.16018 567.9258 805.54299 559.9883L823.35549 516.16409C815.51956 507.96095 806.8906 500.51954 797.58596 493.97267L758.1367 518.7383C748.9258 513.9844 739.08206 510.28517 728.76956 507.79298L714.3711 463.17189C708.8633 462.64454 703.27737 462.3711 697.6289 462.3711 691.98049 462.3711 686.39456 462.64454 680.8828 463.17189L666.4883 507.79298C656.1758 510.28517 646.3281 513.9844 637.1172 518.7383L597.6719 493.97267C588.3672 500.51954 579.7344 507.96095 571.89846 516.16409L589.71487 559.9883C584.09768 567.9258 579.33596 576.5156 575.5625 585.6133L529.47268 591.9883C526.53128 603.21487 524.6836 614.8789 524.0469 626.8672L566.15237 649.1406C567.0117 657.96487 568.7383 666.53128 571.2461 674.7617L539.9219 709.40237C545.125 720.59768 551.4883 731.14456 558.85549 740.89456L605.5078 730.875C611.08596 736.3008 617.1328 741.2422 623.59378 745.625L621.85159 792.6836C633.0586 798.1211 644.9414 802.3906 657.33596 805.3281L686.5039 767.83596C690.1719 768.1406 693.8789 768.3047 697.6289 768.3047 701.375 768.3047 705.08596 768.1406 708.7539 767.83596L737.9219 805.3281C750.3164 802.3906 762.1953 798.1211 773.40237 792.6836L771.66018 745.625C778.1211 741.2422 784.1719 736.3008 789.75 730.875L836.39846 740.89456C843.7656 731.14456 850.1289 720.59768 855.33596 709.40237L824.0117 674.7617C826.51956 666.53128 828.2461 657.96487 829.10159 649.1406" fill="#4f4c4c"/>
</g>
<g clip-path="url(#clip_25)">
<path transform="matrix(-.061804568,0,0,.06151938,66.50093,2.4012895)" d="M934.04299 572.6758C902 572.6758 876.02346 546.6992 876.02346 514.65628 876.02346 482.61329 902 456.63673 934.04299 456.63673 966.08596 456.63673 992.0625 482.61329 992.0625 514.65628 992.0625 546.6992 966.08596 572.6758 934.04299 572.6758ZM1008.25 521.96096 1032.0195 509.38673C1031.6602 502.6211 1030.6211 496.03517 1028.9609 489.70314L1002.9414 486.10157C1000.8086 480.96876 998.125 476.1172 994.95706 471.63673L1005.0117 446.90235C1000.58987 442.27345 995.71487 438.07423 990.46487 434.3789L968.1992 448.35548C963 445.67189 957.4414 443.58595 951.6211 442.1797L943.4961 416.9922C940.3867 416.6953 937.2344 416.53907 934.04299 416.53907 930.85549 416.53907 927.7031 416.6953 924.59378 416.9922L916.46878 442.1797C910.64456 443.58595 905.08987 445.67189 899.8906 448.35548L877.625 434.3789C872.3711 438.07423 867.5 442.27345 863.0781 446.90235L873.1328 471.63673C869.96096 476.1172 867.27737 480.96876 865.14456 486.10157L839.1328 489.70314C837.47268 496.03517 836.4258 502.6211 836.0703 509.38673L859.83596 521.96096C860.3203 526.9414 861.29299 531.77737 862.71096 536.4219L845.02737 555.97268C847.96878 562.29299 851.5586 568.2461 855.71487 573.75L882.0469 568.09378C885.1953 571.15628 888.6094 573.9453 892.2578 576.41799L891.27346 602.98049C897.60159 606.0508 904.3047 608.46096 911.3008 610.1172L927.7656 588.9531C929.83596 589.1289 931.9297 589.22268 934.04299 589.22268 936.16018 589.22268 938.2539 589.1289 940.3242 588.9531L956.78518 610.1172C963.78128 608.46096 970.4883 606.0508 976.8164 602.98049L975.83206 576.41799C979.48049 573.9453 982.89456 571.15628 986.03909 568.09378L1012.3711 573.75C1016.53128 568.2461 1020.1211 562.29299 1023.0586 555.97268L1005.3789 536.4219C1006.78909 531.77737 1007.76956 526.9414 1008.25 521.96096" fill="#4f4c4c"/>
</g>
<g clip-path="url(#clip_26)">
<path transform="matrix(-.061804568,0,0,.06151938,66.50093,2.4012895)" d="M152.5039 271.85548C102.62891 271.85548 62.195314 231.42188 62.195314 181.54297 62.195314 131.66407 102.62891 91.234378 152.5039 91.234378 202.38282 91.234378 242.8164 131.66407 242.8164 181.54297 242.8164 231.42188 202.38282 271.85548 152.5039 271.85548ZM268.01564 192.91407 305.01173 173.34375C304.45314 162.8125 302.82814 152.5625 300.2422 142.70313L259.75 137.10157C256.4336 129.10547 252.2539 121.55859 247.3164 114.58594L262.96876 76.08594C256.08595 68.875 248.5 62.339845 240.32813 56.585939L205.66797 78.34375C197.57422 74.16797 188.92578 70.91797 179.86328 68.73047L167.21875 29.523438C162.375 29.058594 157.46875 28.820313 152.5039 28.820313 147.54297 28.820313 142.63672 29.058594 137.79297 29.523438L125.14453 68.73047C116.08594 70.91797 107.43359 74.16797 99.34375 78.34375L64.68359 56.585939C56.51172 62.339845 48.92578 68.875 42.039064 76.08594L57.691408 114.58594C52.757814 121.55859 48.578126 129.10547 45.257814 137.10157L4.7695314 142.70313C2.183594 152.5625 .55859407 162.8125 0 173.34375L36.992189 192.91407C37.746095 200.66407 39.265626 208.19532 41.46875 215.42578L13.9453129 245.85938C18.519532 255.69532 24.109375 264.96485 30.582032 273.52735L71.57031 264.72267C76.46875 269.4922 81.78125 273.83595 87.46094 277.6836L85.92969 319.02735C95.77734 323.8047 106.21484 327.5547 117.10547 330.14064L142.73047 297.1953C145.95313 297.46485 149.21094 297.60939 152.5039 297.60939 155.79688 297.60939 159.05469 297.46485 162.28125 297.1953L187.90625 330.14064C198.79688 327.5547 209.23438 323.8047 219.08203 319.02735L217.55078 277.6836C223.22657 273.83595 228.54297 269.4922 233.4414 264.72267L274.4297 273.52735C280.89845 264.96485 286.4922 255.69532 291.0625 245.85938L263.54298 215.42578C265.7461 208.19532 267.26173 200.66407 268.01564 192.91407" fill="#4f4c4c"/>
</g>
</svg>
